<svg width="28" height="28" viewBox="0 0 28 28" fill="none" xmlns="http://www.w3.org/2000/svg">
<g clip-path="url(#clip0_607_10680)">
<path d="M27.791 13.0445C26.7667 10.8045 22.7499 3.5 13.9999 3.5C5.24985 3.5 1.23302 10.8045 0.208683 13.0445C0.0711778 13.3447 0 13.671 0 14.0012C0 14.3313 0.0711778 14.6576 0.208683 14.9578C1.23302 17.1955 5.24985 24.5 13.9999 24.5C22.7499 24.5 26.7667 17.1955 27.791 14.9555C27.9282 14.6557 27.9993 14.3298 27.9993 14C27.9993 13.6702 27.9282 13.3443 27.791 13.0445ZM13.9999 22.1667C6.64168 22.1667 3.20818 15.9063 2.33318 14.0128C3.20818 12.0937 6.64168 5.83333 13.9999 5.83333C21.3405 5.83333 24.7752 12.0668 25.6665 14C24.7752 15.9332 21.3405 22.1667 13.9999 22.1667Z" fill="#9E9E9E"/>
<path d="M13.9994 8.16702C12.8456 8.16702 11.7178 8.50914 10.7585 9.15012C9.79924 9.79109 9.05157 10.7021 8.61005 11.768C8.16854 12.8339 8.05302 14.0068 8.2781 15.1384C8.50318 16.2699 9.05876 17.3093 9.87456 18.1251C10.6904 18.941 11.7298 19.4965 12.8613 19.7216C13.9929 19.9467 15.1658 19.8312 16.2317 19.3897C17.2976 18.9481 18.2086 18.2005 18.8496 17.2412C19.4906 16.2819 19.8327 15.1541 19.8327 14.0004C19.8308 12.4538 19.2157 10.9712 18.1221 9.87761C17.0285 8.78405 15.5459 8.16888 13.9994 8.16702ZM13.9994 17.5004C13.3071 17.5004 12.6304 17.2951 12.0549 16.9105C11.4793 16.5259 11.0307 15.9793 10.7658 15.3397C10.5009 14.7002 10.4316 13.9965 10.5666 13.3175C10.7017 12.6386 11.035 12.015 11.5245 11.5255C12.014 11.036 12.6376 10.7027 13.3165 10.5676C13.9955 10.4326 14.6992 10.5019 15.3387 10.7668C15.9783 11.0317 16.5249 11.4803 16.9095 12.0559C17.2941 12.6314 17.4994 13.3081 17.4994 14.0004C17.4994 14.9286 17.1306 15.8189 16.4742 16.4752C15.8178 17.1316 14.9276 17.5004 13.9994 17.5004Z" fill="#9E9E9E"/>
</g>
<defs>
<clipPath id="clip0_607_10680">
<rect width="28" height="28" fill="white"/>
</clipPath>
</defs>
</svg>
