<svg width="27" height="27" viewBox="0 0 27 27" fill="none" xmlns="http://www.w3.org/2000/svg">
<g clip-path="url(#clip0_607_10640)">
<path d="M19.6881 1.0318C18.4213 1.0515 17.1821 1.40513 16.0957 2.05698C15.0093 2.70882 14.1141 3.6358 13.5006 4.7443C12.887 3.6358 11.9919 2.70882 10.9055 2.05698C9.81905 1.40513 8.57987 1.0515 7.31306 1.0318C5.29362 1.11954 3.39098 2.00296 2.02082 3.48906C0.650655 4.97516 -0.0756559 6.94314 0.000563429 8.96305C0.000563429 16.5849 12.3261 25.3881 12.8503 25.7615L13.5006 26.2217L14.1508 25.7615C14.6751 25.3903 27.0006 16.5849 27.0006 8.96305C27.0768 6.94314 26.3505 4.97516 24.9803 3.48906C23.6101 2.00296 21.7075 1.11954 19.6881 1.0318ZM13.5006 23.4519C9.84094 20.7182 2.25056 14.0019 2.25056 8.96305C2.17366 7.5396 2.66273 6.1435 3.6111 5.07921C4.55947 4.01493 5.8902 3.36882 7.31306 3.2818C8.73593 3.36882 10.0667 4.01493 11.015 5.07921C11.9634 6.1435 12.4525 7.5396 12.3756 8.96305H14.6256C14.5487 7.5396 15.0377 6.1435 15.9861 5.07921C16.9345 4.01493 18.2652 3.36882 19.6881 3.2818C21.1109 3.36882 22.4417 4.01493 23.39 5.07921C24.3384 6.1435 24.8275 7.5396 24.7506 8.96305C24.7506 14.0042 17.1602 20.7182 13.5006 23.4519Z" fill="#960202"/>
</g>
<defs>
<clipPath id="clip0_607_10640">
<rect width="27" height="27" fill="white"/>
</clipPath>
</defs>
</svg>
