<svg width="32" height="32" viewBox="0 0 32 32" fill="none" xmlns="http://www.w3.org/2000/svg">
<path d="M25.3327 3.9942H6.66602C5.60515 3.9942 4.58773 4.41502 3.83759 5.16407C3.08744 5.91312 2.66602 6.92905 2.66602 7.98837V27.9592C2.66642 28.1951 2.7296 28.4267 2.84908 28.6302C2.96857 28.8338 3.14006 29.0019 3.34602 29.1175C3.54529 29.2303 3.7703 29.2899 3.99935 29.2906C4.23866 29.2905 4.47354 29.2262 4.67935 29.1042L10.666 25.4828C10.8873 25.3513 11.142 25.2866 11.3993 25.2964H25.3327C26.3935 25.2964 27.411 24.8756 28.1611 24.1266C28.9113 23.3775 29.3327 22.3616 29.3327 21.3023V7.98837C29.3327 6.92905 28.9113 5.91312 28.1611 5.16407C27.411 4.41502 26.3935 3.9942 25.3327 3.9942ZM10.666 15.9767C10.4023 15.9767 10.1445 15.8986 9.92525 15.7523C9.70599 15.606 9.53509 15.3981 9.43418 15.1548C9.33326 14.9115 9.30685 14.6438 9.3583 14.3856C9.40975 14.1273 9.53674 13.8901 9.72321 13.7039C9.90968 13.5177 10.1473 13.3909 10.4059 13.3395C10.6645 13.2881 10.9326 13.3145 11.1763 13.4153C11.4199 13.5161 11.6281 13.6867 11.7746 13.9056C11.9211 14.1246 11.9993 14.382 11.9993 14.6453C11.9993 14.9984 11.8589 15.3371 11.6088 15.5868C11.3588 15.8364 11.0196 15.9767 10.666 15.9767ZM15.9993 15.9767C15.7356 15.9767 15.4779 15.8986 15.2586 15.7523C15.0393 15.606 14.8684 15.3981 14.7675 15.1548C14.6666 14.9115 14.6402 14.6438 14.6916 14.3856C14.7431 14.1273 14.8701 13.8901 15.0565 13.7039C15.243 13.5177 15.4806 13.3909 15.7392 13.3395C15.9979 13.2881 16.266 13.3145 16.5096 13.4153C16.7532 13.5161 16.9615 13.6867 17.108 13.9056C17.2545 14.1246 17.3327 14.382 17.3327 14.6453C17.3327 14.9984 17.1922 15.3371 16.9422 15.5868C16.6921 15.8364 16.353 15.9767 15.9993 15.9767ZM21.3327 15.9767C21.069 15.9767 20.8112 15.8986 20.5919 15.7523C20.3727 15.606 20.2018 15.3981 20.1008 15.1548C19.9999 14.9115 19.9735 14.6438 20.025 14.3856C20.0764 14.1273 20.2034 13.8901 20.3899 13.7039C20.5763 13.5177 20.8139 13.3909 21.0726 13.3395C21.3312 13.2881 21.5993 13.3145 21.8429 13.4153C22.0866 13.5161 22.2948 13.6867 22.4413 13.9056C22.5878 14.1246 22.666 14.382 22.666 14.6453C22.666 14.9984 22.5255 15.3371 22.2755 15.5868C22.0254 15.8364 21.6863 15.9767 21.3327 15.9767Z" fill="#9E9E9E"/>
</svg>
