<svg width="24" height="24" viewBox="0 0 24 24" fill="none" xmlns="http://www.w3.org/2000/svg">
    <mask id="path-1-inside-1_607_11716" fill="#000">
    <path d="M14.2002 16.139C11.2887 14.906 8.97343 12.5853 7.7472 9.671L11.1472 6.265L4.8872 0L1.7162 3.17C1.1662 3.72314 0.731342 4.37986 0.436795 5.10215C0.142247 5.82445 -0.00614821 6.59798 0.000195101 7.378C0.000195101 14.626 9.25219 23.878 16.5002 23.878C17.2801 23.8846 18.0536 23.7363 18.7757 23.4417C19.4979 23.1472 20.1544 22.7122 20.7072 22.162L23.8782 18.991L17.6132 12.726L14.2002 16.139ZM19.2942 20.748C18.9264 21.1118 18.4901 21.399 18.0104 21.593C17.5308 21.787 17.0175 21.8839 16.5002 21.878C10.2672 21.878 2.0002 13.611 2.0002 7.378C1.99431 6.86083 2.09116 6.34764 2.28514 5.86819C2.47911 5.38874 2.76635 4.95258 3.1302 4.585L4.8872 2.828L8.3242 6.265L5.38919 9.2L5.63419 9.814C6.35544 11.7433 7.48296 13.4951 8.94035 14.9505C10.3977 16.406 12.1509 17.5313 14.0812 18.25L14.6872 18.481L17.6132 15.554L21.0502 18.991L19.2942 20.748Z"/>
    </mask>
    <path d="M14.2002 16.139C11.2887 14.906 8.97343 12.5853 7.7472 9.671L11.1472 6.265L4.8872 0L1.7162 3.17C1.1662 3.72314 0.731342 4.37986 0.436795 5.10215C0.142247 5.82445 -0.00614821 6.59798 0.000195101 7.378C0.000195101 14.626 9.25219 23.878 16.5002 23.878C17.2801 23.8846 18.0536 23.7363 18.7757 23.4417C19.4979 23.1472 20.1544 22.7122 20.7072 22.162L23.8782 18.991L17.6132 12.726L14.2002 16.139ZM19.2942 20.748C18.9264 21.1118 18.4901 21.399 18.0104 21.593C17.5308 21.787 17.0175 21.8839 16.5002 21.878C10.2672 21.878 2.0002 13.611 2.0002 7.378C1.99431 6.86083 2.09116 6.34764 2.28514 5.86819C2.47911 5.38874 2.76635 4.95258 3.1302 4.585L4.8872 2.828L8.3242 6.265L5.38919 9.2L5.63419 9.814C6.35544 11.7433 7.48296 13.4951 8.94035 14.9505C10.3977 16.406 12.1509 17.5313 14.0812 18.25L14.6872 18.481L17.6132 15.554L21.0502 18.991L19.2942 20.748Z" fill="#000"/>
    <path d="M14.2002 16.139L5.88094 35.7834L19.1193 41.3897L29.2851 31.2239L14.2002 16.139ZM7.7472 9.671L-7.35104 -5.40064L-17.4728 4.73898L-11.9164 17.9446L7.7472 9.671ZM11.1472 6.265L26.2454 21.3366L41.2978 6.25773L26.2382 -8.81392L11.1472 6.265ZM4.8872 0L19.9782 -15.0789L4.8956 -30.1735L-10.1954 -15.0873L4.8872 0ZM1.7162 3.17L-13.3664 -11.9173L-13.3891 -11.8946L-13.4117 -11.8719L1.7162 3.17ZM0.000195101 7.378H21.3335V7.29126L21.3328 7.20452L0.000195101 7.378ZM16.5002 23.878L16.6807 2.54543L16.5904 2.54467H16.5002V23.878ZM20.7072 22.162L35.7565 37.2825L35.7744 37.2647L35.7921 37.2469L20.7072 22.162ZM23.8782 18.991L38.9631 34.0759L54.0481 18.991L38.9631 3.90606L23.8782 18.991ZM17.6132 12.726L32.6981 -2.35894L17.6132 -17.4439L2.52825 -2.35895L17.6132 12.726ZM19.2942 20.748L34.2971 35.9146L34.3404 35.8717L34.3834 35.8286L19.2942 20.748ZM16.5002 21.878L16.7417 0.546033L16.6209 0.544666H16.5002V21.878ZM2.0002 7.378H23.3335V7.25654L23.3321 7.13509L2.0002 7.378ZM3.1302 4.585L-11.9547 -10.4999L-11.9933 -10.4614L-12.0316 -10.4227L3.1302 4.585ZM4.8872 2.828L19.9721 -12.2569L4.8872 -27.3419L-10.1977 -12.2569L4.8872 2.828ZM8.3242 6.265L23.4091 21.35L38.4941 6.265L23.4091 -8.81995L8.3242 6.265ZM5.38919 9.2L-9.69575 -5.88495L-19.6336 4.05288L-14.425 17.1063L5.38919 9.2ZM5.63419 9.814L25.6169 2.34375L25.535 2.1248L25.4484 1.9077L5.63419 9.814ZM14.0812 18.25L21.6799 -1.68417L21.6028 -1.71357L21.5254 -1.74237L14.0812 18.25ZM14.6872 18.481L7.0885 38.4152L20.0033 43.3382L29.7747 33.5634L14.6872 18.481ZM17.6132 15.554L32.6982 0.469062L17.6106 -14.6185L2.52567 0.471637L17.6132 15.554ZM21.0502 18.991L36.1394 34.0716L51.2158 18.9867L36.1351 3.90606L21.0502 18.991ZM22.5194 -3.50537C24.7264 -2.57076 26.4813 -0.811693 27.4108 1.39738L-11.9164 17.9446C-8.53449 25.9824 -2.14894 32.3828 5.88094 35.7834L22.5194 -3.50537ZM22.8454 24.7426L26.2454 21.3366L-3.95104 -8.80664L-7.35104 -5.40064L22.8454 24.7426ZM26.2382 -8.81392L19.9782 -15.0789L-10.2038 15.0789L-3.94377 21.3439L26.2382 -8.81392ZM-10.1954 -15.0873L-13.3664 -11.9173L16.7988 18.2573L19.9698 15.0873L-10.1954 -15.0873ZM-13.4117 -11.8719C-15.9504 -9.31868 -17.9576 -6.28739 -19.3172 -2.95341L20.1908 13.1577C19.4203 15.0471 18.2828 16.765 16.8441 18.2119L-13.4117 -11.8719ZM-19.3172 -2.95341C-20.6767 0.380575 -21.3617 3.95106 -21.3324 7.55148L21.3328 7.20452C21.3494 9.2449 20.9612 11.2683 20.1908 13.1577L-19.3172 -2.95341ZM-21.3331 7.378C-21.3331 19.0454 -14.6914 28.2923 -9.55275 33.4309C-4.41408 38.5696 4.83278 45.2113 16.5002 45.2113V2.54467C19.0739 2.54467 20.5361 3.30328 20.7032 3.39011C20.9829 3.53547 20.8806 3.52454 20.6171 3.26106C20.3537 2.99757 20.3427 2.89534 20.4881 3.175C20.5749 3.34205 21.3335 4.80429 21.3335 7.378H-21.3331ZM16.3197 45.2106C19.923 45.2411 23.4964 44.556 26.8329 43.195L10.7185 3.68846C12.6107 2.91666 14.6372 2.52814 16.6807 2.54543L16.3197 45.2106ZM26.8329 43.195C30.1694 41.8341 33.2026 39.8244 35.7565 37.2825L5.65784 7.04155C7.10624 5.59996 8.82638 4.46025 10.7185 3.68846L26.8329 43.195ZM35.7921 37.2469L38.9631 34.0759L8.79325 3.90606L5.62225 7.07706L35.7921 37.2469ZM38.9631 3.90606L32.6981 -2.35894L2.52825 27.8109L8.79325 34.0759L38.9631 3.90606ZM2.52825 -2.35895L-0.88475 1.05405L29.2851 31.2239L32.6981 27.8109L2.52825 -2.35895ZM4.29133 5.58142C5.9303 3.96015 7.87469 2.68027 10.0118 1.81593L26.0091 41.3701C29.1054 40.1178 31.9225 38.2635 34.2971 35.9146L4.29133 5.58142ZM10.0118 1.81593C12.149 0.951572 14.4365 0.51994 16.7417 0.546033L16.2587 43.21C19.5985 43.2478 22.9127 42.6224 26.0091 41.3701L10.0118 1.81593ZM16.5002 0.544666C19.4653 0.544666 21.237 1.45007 21.5694 1.62566C22.0441 1.87642 22.1172 1.99988 21.9978 1.88043C21.8783 1.76099 22.0018 1.83405 22.2525 2.30876C22.4281 2.64116 23.3335 4.41286 23.3335 7.378H-19.3331C-19.3331 18.6973 -12.7623 27.4602 -8.17213 32.0503C-3.582 36.6404 5.18093 43.2113 16.5002 43.2113V0.544666ZM23.3321 7.13509C23.3584 9.44181 22.9264 11.7308 22.0612 13.8693L-17.491 -2.13288C-18.7441 0.964498 -19.3698 4.27986 -19.3318 7.62091L23.3321 7.13509ZM22.0612 13.8693C21.196 16.0077 19.9149 17.9532 18.292 19.5927L-12.0316 -10.4227C-14.3822 -8.04799 -16.2378 -5.23025 -17.491 -2.13288L22.0612 13.8693ZM18.2151 19.6699L19.9721 17.9129L-10.1977 -12.2569L-11.9547 -10.4999L18.2151 19.6699ZM-10.1977 17.9129L-6.76075 21.3499L23.4091 -8.81995L19.9721 -12.2569L-10.1977 17.9129ZM-6.76074 -8.81995L-9.69575 -5.88495L20.4741 24.2849L23.4091 21.35L-6.76074 -8.81995ZM-14.425 17.1063L-14.18 17.7203L25.4484 1.9077L25.2034 1.2937L-14.425 17.1063ZM-14.3485 17.2842C-12.5566 22.0774 -9.75546 26.4293 -6.13477 30.0453L24.0155 -0.144224C24.7214 0.560769 25.2675 1.40926 25.6169 2.34375L-14.3485 17.2842ZM-6.13477 30.0453C-2.51408 33.6613 1.84155 36.4568 6.63699 38.2424L21.5254 -1.74237C22.4603 -1.39424 23.3095 -0.849219 24.0155 -0.144224L-6.13477 30.0453ZM6.4825 38.1842L7.0885 38.4152L22.2859 -1.45316L21.6799 -1.68417L6.4825 38.1842ZM29.7747 33.5634L32.7007 30.6364L2.52567 0.471637L-0.400332 3.39864L29.7747 33.5634ZM2.52824 30.6389L5.96524 34.0759L36.1351 3.90606L32.6982 0.469062L2.52824 30.6389ZM5.96095 3.91036L4.20495 5.66736L34.3834 35.8286L36.1394 34.0716L5.96095 3.91036Z" fill="#000" mask="url(#path-1-inside-1_607_11716)"/>
</svg>
