<svg width="27" height="27" viewBox="0 0 27 27" fill="none" xmlns="http://www.w3.org/2000/svg">
<g clip-path="url(#clip0_607_10635)">
<path d="M26.9996 26.9993H24.7496C24.7472 24.9115 23.9167 22.9098 22.4404 21.4335C20.9641 19.9571 18.9624 19.1267 16.8746 19.1243H11.4408V26.3401L0.986201 15.8854C0.353486 15.2525 -0.00195313 14.3942 -0.00195312 13.4993C-0.00195313 12.6044 0.353486 11.7461 0.986201 11.1132L11.4408 0.658569V7.87432H16.8746C19.559 7.8773 22.1326 8.94499 24.0307 10.8432C25.9289 12.7413 26.9966 15.3149 26.9996 17.9993V26.9993ZM9.19083 6.09007L2.57695 12.7039C2.36605 12.9149 2.24757 13.201 2.24757 13.4993C2.24757 13.7976 2.36605 14.0837 2.57695 14.2947L9.19083 20.9086V16.8743H16.8746C18.3853 16.8742 19.8768 17.2126 21.2396 17.8646C22.6023 18.5166 23.8017 19.4656 24.7496 20.6419V17.9993C24.7472 15.9115 23.9167 13.9098 22.4404 12.4335C20.9641 10.9572 18.9624 10.1267 16.8746 10.1243H9.19083V6.09007Z" fill="#960202"/>
</g>
<defs>
<clipPath id="clip0_607_10635">
<rect width="27" height="27" fill="white"/>
</clipPath>
</defs>
</svg>
