<svg width="27" height="29" viewBox="0 0 27 29" fill="none" xmlns="http://www.w3.org/2000/svg">
<path d="M26.7913 29L13.4997 15.7724L0.208008 29V3.62498C0.208008 2.66358 0.589926 1.74154 1.26975 1.06172C1.94957 0.381903 2.8716 -1.52588e-05 3.83301 -1.52588e-05L23.1663 -1.52588e-05C24.1278 -1.52588e-05 25.0498 0.381903 25.7296 1.06172C26.4094 1.74154 26.7913 2.66358 26.7913 3.62498V29ZM13.4997 12.3637L24.3747 23.1819V3.62498C24.3747 3.30451 24.2474 2.99717 24.0208 2.77056C23.7942 2.54396 23.4868 2.41665 23.1663 2.41665H3.83301C3.51254 2.41665 3.20519 2.54396 2.97859 2.77056C2.75198 2.99717 2.62467 3.30451 2.62467 3.62498V23.1819L13.4997 12.3637Z" fill="#061A3D"/>
</svg>
